<svg xmlns="http://www.w3.org/2000/svg" width="171" height="43" viewBox="0 0 171 43">
  <g fill="#FFF" fill-rule="evenodd">
    <path d="M37.7891815,42.2504339 C36.6112344,42.2504339 35.433709,41.8014311 34.5344387,40.9025825 C23.8013765,30.168677 23.8009549,12.7031035 34.5348603,1.96919807 C36.3325576,0.171922388 39.2462269,0.171922388 41.0439242,1.96919807 C42.8411999,3.76605216 42.8411999,6.68014307 41.0439242,8.47741876 C33.8982462,15.6226752 33.8986678,27.2486838 41.0435026,34.3939402 C42.8407783,36.1912159 42.8407783,39.1053068 41.0439242,40.9025825 C40.144654,41.8010095 38.9667069,42.2504339 37.7891815,42.2504339" opacity=".51"/>
    <path d="M5.36456581,42.3410355 C4.18661877,42.3410355 3.00867172,41.8920327 2.10982307,40.9927625 C0.312547388,39.1959084 0.312547388,36.2813959 2.10982307,34.4845418 C7.31446027,29.2803262 14.2210918,26.3986984 21.5590189,26.3704513 L21.6677914,26.3704513 C28.9901194,26.3704513 35.8668174,29.2170864 41.0436291,34.3938981 C42.8409048,36.1911737 42.8409048,39.1052647 41.0436291,40.9025403 C39.2459318,42.7002376 36.3326841,42.7002376 34.5345652,40.9025403 C31.0976918,37.4652453 26.5300904,35.5747963 21.6669482,35.5747963 L21.5944332,35.5747963 C16.7022008,35.5937682 12.0937043,37.5179452 8.61888696,40.9927625 C7.72003831,41.8916111 6.54209126,42.3410355 5.36456581,42.3410355" opacity=".51"/>
    <path d="M35.9402101,41.8643138 C37.3899427,42.499779 39.0998821,42.3516416 40.4280711,41.4199016 C39.6381333,41.9734942 38.7135275,42.2504339 37.7891815,42.2504339 C37.1585368,42.2504339 36.5280129,42.1217373 35.9402444,41.8642148 Z M35.3144214,41.529853 C35.3142879,41.5297677 35.3141544,41.5296824 35.3140209,41.5295971 C35.3141543,41.5296824 35.3142878,41.5297677 35.3144213,41.529853 Z M34.4977545,40.8658273 C30.5463213,36.8993888 28.0562313,32.0184655 27.0275695,26.8994848 C32.3160103,27.9416501 37.1349615,30.499393 41.0072274,34.3575627 C41.0192986,34.3697014 41.0313904,34.3818272 41.0435026,34.3939402 C41.0454627,34.3959003 41.0474206,34.3978617 41.0493764,34.3998244 C42.8409027,36.1974785 42.8389601,39.1072093 41.0436291,40.9025403 C40.9209778,41.0251916 40.7931338,41.1394748 40.6608054,41.2453898 C40.5846394,41.3063008 40.5069905,41.3644439 40.4279938,41.4198189 Z"/>
    <path d="M2.10952796,8.56814682 C0.312252269,6.77129273 0.312252269,3.85678022 2.10952796,2.05992614 C3.90722524,0.26265045 6.82089455,0.262228851 8.61859184,2.05992614 C15.7381308,9.17862188 27.3641393,9.13983479 34.5351133,1.9688608 C36.3328106,0.172006708 39.2460583,0.172006708 41.0441772,1.9688608 C42.8410313,3.76613648 42.8414529,6.68022739 41.0441772,8.47750308 C35.6477125,13.8735461 28.5644311,16.5734648 21.4937976,16.5734648 C14.4649024,16.5734648 7.44823357,13.9064308 2.10952796,8.56814682 Z" opacity=".51"/>
    <path d="M27.0183218,16.0185559 C28.0444252,10.8668976 30.5499093,5.95414916 34.5348603,1.96919807 C34.5358488,1.96820985 34.5368376,1.96722217 34.5378267,1.96623503 C35.8432497,0.66343426 37.7356892,0.307078337 39.3624366,0.897122955 C39.9760157,1.11985137 40.5517878,1.47717704 41.0439242,1.96919807 C41.5005736,2.42574034 41.8411981,2.9544069 42.0657978,3.51855418 C42.2946796,4.09331391 42.403081,4.70490445 42.3910785,5.31455985 C42.3683314,6.46169681 41.9193132,7.60202978 41.0439242,8.47741876 C41.026714,8.49462793 41.0095453,8.51186309 40.992418,8.52912412 C37.0178546,12.4828109 32.1348464,14.9797904 27.0183218,16.0185559 Z"/>
    <path d="M5.36456581,42.3410355 C4.18661877,42.3410355 3.00867172,41.8920327 2.10982307,40.9927625 C0.312547388,39.1959084 0.312547388,36.2813959 2.10982307,34.4845418 C5.57536521,31.0194213 7.48267819,26.4176704 7.48267819,21.5262811 C7.48267819,16.6353134 5.57494362,12.0331409 2.10982307,8.56844194 C0.312547388,6.77116625 0.312547388,3.85707534 2.10940148,2.05979966 C3.90709876,0.26252397 6.82118967,0.26252397 8.61888696,2.05979966 C13.8222594,7.26317205 16.6874448,14.1765492 16.6874448,21.5262811 C16.6874448,28.8764346 13.8218378,35.7898117 8.61888696,40.9927625 C7.72003831,41.8916111 6.54209126,42.3410355 5.36456581,42.3410355" opacity=".51"/>
    <path d="M1.54644594 2.74187C1.54652643 2.74175083 1.54660693 2.74163167 1.54668744 2.74151251 1.66326948 2.5688952 1.79283868 2.40243814 1.93539473 2.24351374 1.99149646 2.18118005 2.04951009 2.11992992 2.10952796 2.05992614 2.4835121 1.6860297 2.90579396 1.3898986 3.35627828 1.17154423 4.71432176.51329582 6.32879316.561997421 7.64894138 1.31755063 7.9957676 1.51624447 8.32233383 1.76366813 8.61859184 2.05992614 8.6376949 2.07902694 8.65683041 2.09807621 8.67599818 2.11707395 12.5312806 5.99440403 15.0934198 10.8141029 16.1459309 16.0529723 10.9951509 15.0393569 6.086909 12.5450944 2.10982309 8.56844193.525467829 6.98408669.33777174 4.53185669 1.546446 2.74186991zM2.11025992 34.484105C6.01515578 30.5796944 10.8780641 27.9826493 16.1623538 26.9171297 15.1150675 32.213977 12.5260107 37.0856387 8.61888696 40.9927625 7.72003831 41.8916111 6.54209126 42.3410355 5.36456581 42.3410355 4.18661877 42.3410355 3.00867172 41.8920327 2.10982307 40.9927625.312547388 39.1959084.312547388 36.2813959 2.10982307 34.4845418zM65.3543699 18.4896193C65.1013259 17.5681642 64.7148246 16.7483016 64.1941162 16.0270324 63.6737828 15.306513 63.0068712 14.7336964 62.1926318 14.3059583 61.3787673 13.8793448 60.4243227 13.6652883 59.3307977 13.6652883 58.1825402 13.6652883 57.2089768 13.8920907 56.4093577 14.3460704 55.6082391 14.800425 54.9544483 15.3934852 54.4468608 16.1278752 53.9407728 16.8611405 53.5733903 17.6956234 53.346213 18.6286998 53.1194106 19.5640255 53.0065717 20.5102226 53.0065717 21.4717899 53.0065717 22.4854655 53.1265334 23.4657767 53.3664566 24.4130985 53.6067547 25.3604204 53.986883 26.1937786 54.5075914 26.9154227 55.0282997 27.6351923 55.7012093 28.2155066 56.5293193 28.6563655 57.3555549 29.0960998 58.3561097 29.3161544 59.5306088 29.3161544 60.704733 29.3161544 61.6854191 29.0901017 62.4734169 28.636122 63.2602901 28.1821423 63.8938374 27.5819594 64.3736838 26.8344486 64.8550297 26.0880625 65.201044 25.233336 65.4151005 24.2728934 65.6276575 23.3128257 65.7348731 22.3250168 65.7348731 21.3109664 65.7348731 20.3508986 65.6085386 19.4095749 65.3543699 18.4896193zM53.1265334 11.1442201L53.1265334 13.9456986 53.2060079 13.9456986C53.7672033 12.7985657 54.6477965 11.9644576 55.8481623 11.4437493 57.0485281 10.9230409 58.3703551 10.6639988 59.8106441 10.6639988 61.4117567 10.6639988 62.8059355 10.9575299 63.9935554 11.5438423 65.1808005 12.132029 66.1682344 12.9249003 66.9562323 13.925455 67.7434803 14.9263847 68.3365405 16.08139 68.7369124 17.3878469 69.1372842 18.6961782 69.3370953 20.0832343 69.3370953 21.5512644 69.3370953 23.0192946 69.1432823 24.4074753 68.7571559 25.7135573 68.3695299 27.0222635 67.7828427 28.1618988 66.9955947 29.1365868 66.2090964 30.1112749 65.2212875 30.8779045 64.0340425 31.4376004 62.8467974 31.9987958 61.4653646 32.2780814 59.8904936 32.2780814 59.3844056 32.2780814 58.8160874 32.2244736 58.1896629 32.1187574 57.5621138 32.0115417 56.9420622 31.8379723 56.3283836 31.598049 55.7139553 31.3581258 55.1340159 31.0312305 54.5874408 30.6177378 54.0404908 30.2038702 53.5793884 29.6902846 53.2060079 29.0758563L53.1265334 29.0758563 53.1265334 39.7228238 49.7237474 39.7228238 49.7237474 11.1442201 53.1265334 11.1442201zM85.3469464 21.1507426C84.920333 21.4693907 84.3591376 21.7021911 83.6663593 21.8483944 82.9724564 21.9945976 82.2448143 22.1134345 81.4841827 22.2060299 80.7235511 22.3001248 79.9569215 22.4058409 79.1831691 22.5258026 78.4082921 22.6446395 77.7155138 22.8373279 77.1018352 23.102368 76.4874069 23.3685328 75.9873169 23.7464119 75.6008156 24.2371299 75.2135646 24.7293473 75.0197516 25.3996328 75.0197516 26.2494858 75.0197516 26.8069324 75.1337151 27.2777817 75.3608924 27.6639081 75.5865702 28.0489099 75.8801012 28.3604352 76.2414856 28.5992338 76.6017453 28.8380324 77.021236 29.0116018 77.5014573 29.117318 77.9828033 29.223409 78.4892662 29.276642 79.0227205 29.276642 80.1436117 29.276642 81.1040543 29.1236909 81.9047981 28.8181637 82.704792 28.5137612 83.3585828 28.1287594 83.8661703 27.6639081 84.3722584 27.1990569 84.7467635 26.6940935 84.9870616 26.1497677 85.2269848 25.6054419 85.3469464 25.0944805 85.3469464 24.6165084L85.3469464 21.1507426zM90.8711784 31.7583477C90.2844912 32.104362 89.4702518 32.2779315 88.42921 32.2779315 87.5482419 32.2779315 86.8483409 32.0316353 86.3276326 31.5375434 85.8069242 31.0442013 85.5478821 30.2370846 85.5478821 29.1165682 84.6125565 30.2370846 83.5261542 31.0442013 82.2853013 31.5375434 81.0444484 32.0320102 79.7038775 32.2779315 78.2620889 32.2779315 77.3278879 32.2779315 76.4412966 32.1707158 75.6008156 31.9581588 74.7595848 31.7456018 74.0319427 31.4115837 73.418639 30.957604 72.8053353 30.504749 72.3183661 29.9101892 71.9581064 29.1757993 71.5978467 28.4425339 71.4171546 27.5555678 71.4171546 26.514526 71.4171546 25.3404018 71.6180903 24.3799591 72.0184621 23.6324484 72.4180842 22.8860623 72.9444158 22.2787566 73.5993312 21.8116561 74.2531219 21.3445556 75.0006327 20.990294 75.8411137 20.7503708 76.6812198 20.5100727 77.5419444 20.3102616 78.4225375 20.149813 79.3567386 19.9634976 80.2433298 19.8229176 81.0849355 19.7303222 81.9250416 19.6362273 82.6658045 19.5031449 83.3060996 19.3299504 83.9456449 19.1563809 84.4532325 18.902962 84.8262381 18.5693188 85.2007432 18.2353007 85.3874335 17.7479567 85.3874335 17.1084114 85.3874335 16.3609006 85.2472284 15.7607177 84.9664432 15.306738 84.6871576 14.8538829 84.3257733 14.506744 83.8864139 14.2664459 83.4451801 14.025398 82.951838 13.866074 82.4052629 13.7854748 81.8571883 13.7056254 81.317736 13.6651383 80.7842817 13.6651383 79.3436178 13.6651383 78.1417524 13.9399254 77.1816847 14.4865005 76.2212421 15.0330755 75.7009086 16.0673695 75.6210591 17.5886327L72.2182732 17.5886327C72.271881 16.3072927 72.5380458 15.2268885 73.0178923 14.3462953 73.4992382 13.4653273 74.1387835 12.7523055 74.9399021 12.2046058 75.7410207 11.6576558 76.6538536 11.2644067 77.6817746 11.0241086 78.708571 10.7841854 79.8095936 10.6642238 80.9837179 10.6642238 81.9179189 10.6642238 82.8449972 10.7305775 83.7660774 10.8640348 84.6871576 10.9971172 85.5205159 11.2692801 86.2680267 11.6827728 87.0144128 12.0951408 87.6145957 12.6739556 88.0689503 13.4203417 88.52293 14.1656032 88.7497324 15.1376671 88.7497324 16.334659L88.7497324 26.9602583C88.7497324 27.7591277 88.7962175 28.3450651 88.8899375 28.7169461 88.9829078 29.0903266 89.2966824 29.276642 89.8301366 29.276642 90.1236677 29.276642 90.4708066 29.223409 90.8711784 29.1165682L90.8711784 31.7583477zM101.358072 34.6003132C100.9577 35.6143637 100.564076 36.4675906 100.176825 37.1618684 99.7903239 37.8557713 99.3625858 38.4225899 98.8969848 38.862699 98.4295095 39.303558 97.909176 39.6233306 97.3352347 39.8238914 96.7605436 40.0237025 96.1015045 40.1234206 95.353244 40.1234206 94.9528721 40.1234206 94.5539998 40.0975538 94.1528782 40.043946 93.7525063 39.9903382 93.3652552 39.8962433 92.9922496 39.7635357L92.9918747 36.64116C93.2854058 36.7742424 93.625422 36.8885809 94.012673 36.9823009 94.3991743 37.0748962 94.7260697 37.1213813 94.9933592 37.1213813 95.687637 37.1213813 96.2675764 36.9549346 96.7346769 36.6209165 97.2017774 36.2868984 97.5556641 35.8137998 97.7959622 35.2004961L99.1957642 31.7182356 90.9903903 11.1444451 94.8329105 11.1444451 100.877851 28.0751515 100.9577 28.0751515 106.761218 11.1444451 110.36344 11.1444451 101.358072 34.6003132zM111.164596 14.1466342L111.164596 11.1442201 114.647232 11.1442201 114.647232 8.06233149C114.647232 6.38061971 115.133076 5.10640251 116.108139 4.23893014 117.082452 3.37220753 118.502498 2.93847134 120.371275 2.93847134 120.690672 2.93847134 121.058055 2.96471294 121.471548 3.01794591 121.885415 3.07155375 122.252423 3.15252783 122.57257 3.258244L122.57257 6.22017106C122.278664 6.11445489 121.957767 6.04060353 121.611753 6.00049136 121.264614 5.96000432 120.945216 5.94088544 120.651685 5.94088544 119.8247 5.94088544 119.18403 6.10020945 118.73005 6.42110675 118.275695 6.74087941 118.049643 7.35530776 118.050018 8.26214254L118.050018 11.1442201 122.051862 11.1442201 122.051862 14.1466342 118.050018 14.1466342 118.050018 31.8379723 114.647232 31.8379723 114.647232 14.1466342 111.164596 14.1466342z"/>
    <polygon points="128.696 3.258 128.696 31.838 125.294 31.838 125.294 3.258"/>
    <path d="M147.007737,17.2284104 C146.70146,16.5071413 146.287593,15.8867148 145.766884,15.3671311 C145.246551,14.8464228 144.631748,14.4329301 143.925849,14.1262783 C143.218825,13.8196264 142.43795,13.6651758 141.584348,13.6651758 C140.703755,13.6651758 139.908634,13.8196264 139.202735,14.1262783 C138.495337,14.4329301 137.888031,14.8539204 137.381568,15.3873747 C136.874355,15.9212038 136.473609,16.5412554 136.180078,17.248654 C135.886547,17.9556777 135.712977,18.7095614 135.659744,19.5091805 L147.548689,19.5091805 C147.493957,18.7095614 147.314389,17.948555 147.007737,17.2284104 M147.827975,30.5175324 C146.280845,31.6920315 144.332594,32.2779689 141.98397,32.2779689 C140.329625,32.2779689 138.894959,32.0118041 137.681472,31.477975 C136.466861,30.9441458 135.445688,30.1966351 134.619827,29.2365673 C133.792467,28.2761247 133.17204,27.1289918 132.758173,25.794419 C132.343556,24.4598461 132.110755,23.0060614 132.057147,21.4311904 C132.057147,19.8563194 132.29707,18.4156555 132.778416,17.1084488 C133.258638,15.8008673 133.931172,14.6661055 134.79902,13.7056629 C135.666492,12.7452203 136.693288,11.9988341 137.880908,11.4642552 C139.068153,10.9304261 140.369737,10.6642613 141.784159,10.6642613 C143.625195,10.6642613 145.152456,11.0443896 146.367067,11.8038965 C147.580554,12.5645281 148.555242,13.5320934 149.290007,14.7062177 C150.023272,15.8807168 150.530485,17.1620567 150.810145,18.5487379 C151.090556,19.9372935 151.203395,21.2576209 151.151286,22.5115946 L135.659744,22.5115946 C135.633503,23.419554 135.740343,24.2802785 135.980641,25.0930184 C136.22094,25.9072578 136.607066,26.6289019 137.14052,27.2553264 C137.674349,27.8825007 138.355506,28.3829655 139.182492,28.7559711 C140.009852,29.1308512 140.983415,29.3160419 142.103932,29.3160419 C143.54572,29.3160419 144.725843,28.9831484 145.646923,28.3151122 C146.568003,27.6485755 147.174184,26.6345251 147.46809,25.2737106 L150.830389,25.2737106 C150.376034,27.5949677 149.37548,29.3434081 147.827975,30.5175324"/>
    <polygon points="151.431 11.144 155.793 11.144 160.756 18.388 165.92 11.144 170.003 11.144 162.877 20.67 170.884 31.838 166.521 31.838 160.756 23.272 154.993 31.838 150.87 31.838 158.636 20.951"/>
  </g>
</svg>
